# 3ds Max Wavefront OBJ Exporter v0.97b - (c)2007 guruware
# File Created: 23.08.2018 17:48:54

mtllib ??.mtl

#
# object Box007
#

v  -40.4808 -9.0873 -30.3059
v  -24.6120 -9.0873 -27.5078
v  -29.3401 -0.0000 -34.3696
v  -37.6722 -0.0000 -35.8387
v  -21.8138 -9.0873 -43.3767
v  -27.8710 -0.0000 -42.7017
v  -37.6827 -9.0873 -46.1748
v  -36.2030 -0.0000 -44.1708
v  -29.0170 9.0873 -38.3330
v  -36.9601 -9.0873 -0.6141
v  -20.8465 -9.0873 -0.6141
v  -26.6944 -0.0000 -6.5506
v  -35.1549 -0.0000 -6.5506
v  -20.8465 -9.0873 -16.7278
v  -26.6944 -0.0000 -15.0112
v  -36.9601 -9.0873 -16.7278
v  -35.1549 -0.0000 -15.0112
v  -27.0643 9.0873 -10.5100
v  -8.8948 -9.0873 -35.6409
v  -2.0849 -9.0873 -21.0370
v  0.8240 -0.0000 -28.8459
v  -2.7516 -0.0000 -36.5138
v  12.5191 -9.0873 -27.8470
v  8.4919 -0.0000 -32.4215
v  5.7092 -9.0873 -42.4509
v  4.9163 -0.0000 -40.0894
v  4.2560 9.0873 -30.8545
v  -30.4166 -9.0873 39.6171
v  -17.2171 -9.0873 30.3747
v  -25.4125 -0.0000 28.8660
v  -32.3430 -0.0000 33.7188
v  -26.4596 -9.0873 17.1751
v  -30.2653 -0.0000 21.9355
v  -39.6591 -9.0873 26.4175
v  -37.1958 -0.0000 26.7883
v  -27.9865 9.0873 25.8349
v  4.0460 -9.0873 4.2317
v  20.1596 -9.0873 4.2317
v  14.3118 -0.0000 -1.7048
v  5.8512 -0.0000 -1.7048
v  20.1596 -9.0873 -11.8820
v  14.3118 -0.0000 -10.1655
v  4.0460 -9.0873 -11.8820
v  5.8512 -0.0000 -10.1655
v  13.9418 9.0873 -5.6642
v  50.8856 -9.0873 -8.0208
v  34.7719 -9.0873 -8.0208
v  40.6198 -0.0000 -2.0842
v  49.0804 -0.0000 -2.0842
v  34.7719 -9.0873 8.0930
v  40.6198 -0.0000 6.3764
v  50.8856 -9.0873 8.0930
v  49.0804 -0.0000 6.3764
v  40.9898 9.0873 1.8751
v  36.8727 -9.0873 -47.1125
v  25.4786 -9.0873 -35.7185
v  33.8114 -0.0000 -35.6558
v  39.7939 -0.0000 -41.6383
v  36.8727 -9.0873 -24.3244
v  39.7940 -0.0000 -29.6732
v  48.2668 -9.0873 -35.7184
v  45.7765 -0.0000 -35.6557
v  36.8727 9.0873 -33.1177
v  20.2410 -9.0873 26.1001
v  9.8834 -9.0873 13.7563
v  9.0947 -0.0000 22.0520
v  14.5330 -0.0000 28.5331
v  -2.4605 -9.0873 24.1140
v  2.6134 -0.0000 27.4903
v  7.8972 -9.0873 36.4578
v  8.0518 -0.0000 33.9715
v  6.2994 9.0873 24.8804
v  50.8380 -9.0873 29.2110
v  40.4803 -9.0873 16.8672
v  39.6916 -0.0000 25.1628
v  45.1299 -0.0000 31.6440
v  28.1364 -9.0873 27.2249
v  33.2104 -0.0000 30.6012
v  38.4941 -9.0873 39.5687
v  38.6487 -0.0000 37.0824
v  36.8964 9.0873 27.9913
# 81 vertices

vn -0.6468 0.5324 0.5460
vn 0.4218 0.6759 0.6044
vn 0.4477 0.5631 0.6946
vn -0.7406 0.5591 0.3727
vn 0.7392 0.5241 -0.4230
vn 0.6541 0.4303 -0.6221
vn -0.5552 0.2643 -0.7886
vn -0.5231 0.4568 -0.7195
vn 0.3141 0.9462 0.0781
vn -0.5422 0.5324 0.6501
vn 0.5203 0.6759 0.5220
vn 0.5615 0.5631 0.6064
vn -0.6646 0.5591 0.4956
vn 0.6545 0.5241 -0.5449
vn 0.5361 0.4303 -0.7262
vn -0.6837 0.2643 -0.6802
vn -0.6401 0.4568 -0.6177
vn 0.3229 0.9462 0.0224
vn -0.8183 0.5324 -0.2167
vn -0.2532 0.6759 0.6922
vn -0.3123 0.5631 0.7651
vn -0.7301 0.5591 -0.3929
vn 0.7705 0.5241 0.3629
vn 0.8847 0.4303 0.1790
vn 0.3275 0.2643 -0.9071
vn 0.2893 0.4568 -0.8412
vn 0.1162 0.9462 0.3021
vn -0.0713 0.5324 0.8435
vn 0.7256 0.6759 0.1291
vn 0.8077 0.5631 0.1746
vn -0.2601 0.5591 0.7872
vn 0.2236 0.5241 -0.8218
vn 0.0227 0.4303 -0.9024
vn -0.9502 0.2643 -0.1650
vn -0.8786 0.4568 -0.1389
vn 0.2774 0.9462 -0.1669
vn 0.5422 0.5324 -0.6501
vn -0.5203 0.6759 -0.5220
vn -0.5615 0.5631 -0.6064
vn 0.6646 0.5591 -0.4956
vn -0.6545 0.5241 0.5449
vn -0.5361 0.4303 0.7262
vn 0.6837 0.2643 0.6802
vn 0.6401 0.4568 0.6177
vn -0.3229 0.9462 -0.0224
vn -0.0763 0.5324 -0.8431
vn -0.7370 0.6759 -0.0012
vn -0.8258 0.5631 -0.0317
vn 0.1195 0.5591 -0.8204
vn -0.0775 0.5241 0.8481
vn 0.1344 0.4303 0.8926
vn 0.9644 0.2643 -0.0025
vn 0.8894 0.4568 -0.0158
vn -0.2442 0.9462 0.2125
vn 0.8465 0.5324 -0.0025
vn 0.0654 0.6759 -0.7341
vn 0.1036 0.5631 -0.8199
vn 0.8069 0.5591 0.1905
vn -0.8381 0.5241 -0.1511
vn -0.9009 0.4303 0.0561
vn -0.0816 0.2643 0.9610
vn -0.0618 0.4568 0.8874
vn -0.1904 0.9462 -0.2618
# 63 vertex normals

vt 0.9887 0.8167 0.0000
vt 0.5476 0.9739 0.0000
vt 0.6018 0.6198 0.0000
vt 0.8334 0.5372 0.0000
vt 0.4102 0.2766 0.0000
vt 0.7961 0.0114 0.0000
vt 0.9328 0.2984 0.0000
vt 0.7302 0.4377 0.0000
vt 0.5356 0.9110 0.0000
vt 0.0684 0.8801 0.0000
vt 0.1385 0.6154 0.0000
vt 0.3838 0.6316 0.0000
vt 0.0309 0.0587 0.0000
vt 0.1617 0.5083 0.0000
vt 0.3720 0.2674 0.0000
vt 0.3033 0.0314 0.0000
vt 0.5152 0.3449 0.0000
vt 0.9747 0.5903 0.0000
vt 0.3925 0.3369 0.0000
vt 0.6793 0.0582 0.0000
# 20 texture coords

o Box007
g Box007
usemtl wire_177148027
s 8192
f 1/1/1 2/2/2 3/3/3 4/4/4 
f 2/5/2 5/6/5 6/7/6 3/8/3 
f 5/9/5 7/10/7 8/11/8 6/12/6 
f 7/13/7 1/14/1 4/15/4 8/16/8 
f 3/3/3 9/17/9 4/4/4 
f 6/7/6 9/18/9 3/8/3 
f 8/11/8 9/19/9 6/12/6 
f 4/15/4 9/20/9 8/16/8 
f 10/1/10 11/2/11 12/3/12 13/4/13 
f 11/5/11 14/6/14 15/7/15 12/8/12 
f 14/9/14 16/10/16 17/11/17 15/12/15 
f 16/13/16 10/14/10 13/15/13 17/16/17 
f 12/3/12 18/17/18 13/4/13 
f 15/7/15 18/18/18 12/8/12 
f 17/11/17 18/19/18 15/12/15 
f 13/15/13 18/20/18 17/16/17 
f 19/1/19 20/2/20 21/3/21 22/4/22 
f 20/5/20 23/6/23 24/7/24 21/8/21 
f 23/9/23 25/10/25 26/11/26 24/12/24 
f 25/13/25 19/14/19 22/15/22 26/16/26 
f 21/3/21 27/17/27 22/4/22 
f 24/7/24 27/18/27 21/8/21 
f 26/11/26 27/19/27 24/12/24 
f 22/15/22 27/20/27 26/16/26 
f 28/1/28 29/2/29 30/3/30 31/4/31 
f 29/5/29 32/6/32 33/7/33 30/8/30 
f 32/9/32 34/10/34 35/11/35 33/12/33 
f 34/13/34 28/14/28 31/15/31 35/16/35 
f 30/3/30 36/17/36 31/4/31 
f 33/7/33 36/18/36 30/8/30 
f 35/11/35 36/19/36 33/12/33 
f 31/15/31 36/20/36 35/16/35 
f 37/1/10 38/2/11 39/3/12 40/4/13 
f 38/5/11 41/6/14 42/7/15 39/8/12 
f 41/9/14 43/10/16 44/11/17 42/12/15 
f 43/13/16 37/14/10 40/15/13 44/16/17 
f 39/3/12 45/17/18 40/4/13 
f 42/7/15 45/18/18 39/8/12 
f 44/11/17 45/19/18 42/12/15 
f 40/15/13 45/20/18 44/16/17 
f 46/1/37 47/2/38 48/3/39 49/4/40 
f 47/5/38 50/6/41 51/7/42 48/8/39 
f 50/9/41 52/10/43 53/11/44 51/12/42 
f 52/13/43 46/14/37 49/15/40 53/16/44 
f 48/3/39 54/17/45 49/4/40 
f 51/7/42 54/18/45 48/8/39 
f 53/11/44 54/19/45 51/12/42 
f 49/15/40 54/20/45 53/16/44 
f 55/1/46 56/2/47 57/3/48 58/4/49 
f 56/5/47 59/6/50 60/7/51 57/8/48 
f 59/9/50 61/10/52 62/11/53 60/12/51 
f 61/13/52 55/14/46 58/15/49 62/16/53 
f 57/3/48 63/17/54 58/4/49 
f 60/7/51 63/18/54 57/8/48 
f 62/11/53 63/19/54 60/12/51 
f 58/15/49 63/20/54 62/16/53 
f 64/1/55 65/2/56 66/3/57 67/4/58 
f 65/5/56 68/6/59 69/7/60 66/8/57 
f 68/9/59 70/10/61 71/11/62 69/12/60 
f 70/13/61 64/14/55 67/15/58 71/16/62 
f 66/3/57 72/17/63 67/4/58 
f 69/7/60 72/18/63 66/8/57 
f 71/11/62 72/19/63 69/12/60 
f 67/15/58 72/20/63 71/16/62 
f 73/1/55 74/2/56 75/3/57 76/4/58 
f 74/5/56 77/6/59 78/7/60 75/8/57 
f 77/9/59 79/10/61 80/11/62 78/12/60 
f 79/13/61 73/14/55 76/15/58 80/16/62 
f 75/3/57 81/17/63 76/4/58 
f 78/7/60 81/18/63 75/8/57 
f 80/11/62 81/19/63 78/12/60 
f 76/15/58 81/20/63 80/16/62 
# 36 polygons - 36 triangles

